<svg width="121" height="137" viewBox="0 0 121 137" fill="none" xmlns="http://www.w3.org/2000/svg">
<rect x="10" y="17" width="100" height="32" fill="#543629"/>
<path d="M2.5 49.4087V71.3065L5 73.9343L10 71.3065V97.0191L9.99987 105.778L36.5625 137H60H83.4375L110 105.778V96.3969V71.3065L115.5 73.9343L118.25 71.3065V49.4087L115.5 46.781L110 49.4087L105.875 27.5109H15.125L10 49.4087L5 46.781L2.5 49.4087Z" fill="#A58679"/>
<path d="M23 41.5255H98L95 49.4087H26L23 41.5255Z" fill="#543629"/>
<path d="M33.0002 49.4088H56L53.0002 58.1679H40.5002L33.0002 49.4088Z" fill="#C08D2A"/>
<path d="M65 49.4088H88.0002L80.5002 58.1679H68.0002L65 49.4088Z" fill="#C08D2A"/>
<path d="M10 88.8248V17L22.5 88.8248H35H60H85H97.5L110 17V88.8248V112.912L97.5 137H85H60H35H22.5L10 112.912V88.8248Z" fill="#543629"/>
<path d="M31 105H91L87 109H35L31 105Z" fill="#9D6756"/>
</svg>
