<svg width="121" height="137" viewBox="0 0 121 137" fill="none" xmlns="http://www.w3.org/2000/svg">
<rect x="10" width="100" height="37" fill="#543629"/>
<path d="M2.5 37V62L5 65L10 62V91.3552L9.99987 101.355L36.5625 137H60H83.4375L110 101.355V90.6448V62L115.5 65L118.25 62V37L115.5 34L110 37L105.875 12H15.125L10 37L5 34L2.5 37Z" fill="#EED5BD"/>
<path d="M31 100H91L87 105H35L31 100Z" fill="#F5A78E"/>
<path d="M23 32H98L95 37H26L23 32Z" fill="#543629"/>
<path d="M33.0002 37H56L53.0002 47H40.5002L33.0002 37Z" fill="#717FFC"/>
<path d="M65 37H88.0002L80.5002 47H68.0002L65 37Z" fill="#717FFC"/>
</svg>
