<svg width="217" height="59" viewBox="0 0 217 59" fill="none" xmlns="http://www.w3.org/2000/svg">
<g clip-path="url(#clip0)">
<path d="M45.452 31.112C44.66 31.592 43.22 32.528 41.132 33.92C39.332 35.144 37.844 36.044 36.668 36.62C35.516 37.172 34.88 37.448 34.76 37.448C34.592 37.448 34.7 37.316 35.084 37.052C35.636 36.692 36.116 36.38 36.524 36.116C36.956 35.852 37.316 35.636 37.604 35.468C37.628 35.444 37.64 35.408 37.64 35.36C40.304 33.512 42.944 31.352 45.56 28.88C45.488 29.576 45.452 30.284 45.452 31.004V31.112ZM34.076 38.24C34.7 38 35.576 37.616 36.704 37.088C37.856 36.536 39.332 35.672 41.132 34.496C42.212 33.8 43.1 33.236 43.796 32.804C44.516 32.348 45.08 32.012 45.488 31.796C45.68 36.524 47.876 41.264 52.076 46.016C52.244 46.184 52.448 46.304 52.688 46.376C51.752 46.736 50.804 46.892 49.844 46.844C49.388 46.82 48.932 46.76 48.476 46.664C48.02 46.592 47.552 46.496 47.072 46.376C48.392 46.136 49.052 45.572 49.052 44.684C49.052 43.772 48.812 43.316 48.332 43.316C48.116 43.316 47.972 43.412 47.9 43.604C47.876 43.724 47.936 43.868 48.08 44.036C48.224 44.204 48.296 44.36 48.296 44.504C48.296 44.768 48.044 45.092 47.54 45.476C47.108 45.86 46.724 46.088 46.388 46.16C46.052 46.232 45.752 46.136 45.488 45.872L45.452 45.836C45.02 45.644 44.648 45.428 44.336 45.188C44.312 43.268 43.604 41.708 42.212 40.508C43.124 40.82 43.88 40.976 44.48 40.976C45.776 40.976 46.424 40.34 46.424 39.068C46.424 38.588 46.244 38.348 45.884 38.348C45.596 38.348 45.452 38.54 45.452 38.924C45.452 39.02 45.512 39.116 45.632 39.212C45.776 39.308 45.848 39.392 45.848 39.464C45.848 40.208 45.236 40.484 44.012 40.292C43.076 40.196 42.104 39.944 41.096 39.536C42.68 38.528 43.472 37.712 43.472 37.088C43.472 36.08 43.088 35.576 42.32 35.576C41.696 35.576 41.372 35.828 41.348 36.332C41.444 36.188 41.6 36.116 41.816 36.116C41.936 36.14 42.092 36.152 42.284 36.152C42.74 36.152 42.968 36.452 42.968 37.052C42.968 37.46 42.14 38.204 40.484 39.284C38.54 38.564 36.788 38.204 35.228 38.204C35.036 38.204 34.844 38.204 34.652 38.204C34.46 38.204 34.268 38.216 34.076 38.24ZM29.648 39.14H33.824C35.12 39.236 36.368 39.452 37.568 39.788C37.832 39.908 38.048 40.028 38.216 40.148C38.408 40.244 38.564 40.328 38.684 40.4C38.132 40.76 37.58 41.156 37.028 41.588C36.476 42.02 35.924 42.5 35.372 43.028C34.1 44.228 33.464 45.464 33.464 46.736C33.464 48.176 33.872 49.352 34.688 50.264C35.528 51.2 36.668 51.668 38.108 51.668C38.276 51.668 38.432 51.656 38.576 51.632C38.744 51.632 38.9 51.62 39.044 51.596C38.708 51.764 38.408 51.908 38.144 52.028C37.904 52.148 37.688 52.244 37.496 52.316C36.872 52.676 36.596 53.372 36.668 54.404C36.86 54.092 37.136 53.792 37.496 53.504C38.336 52.856 39.068 52.292 39.692 51.812C40.34 51.356 40.892 50.972 41.348 50.66C43.052 49.46 44.036 47.864 44.3 45.872C44.852 46.256 45.512 46.568 46.28 46.808C47.312 47.12 48.596 47.408 50.132 47.672C50.804 47.792 51.464 47.9 52.112 47.996C52.76 48.092 53.42 48.188 54.092 48.284C55.772 48.548 56.6 48.8 56.576 49.04C56.552 49.184 56.456 49.304 56.288 49.4C56.12 49.52 56.036 49.652 56.036 49.796C56.036 50.036 56.228 50.156 56.612 50.156C57.092 50.156 57.332 49.976 57.332 49.616C57.38 48.488 55.784 47.684 52.544 47.204C53.816 46.868 54.896 46.34 55.784 45.62C56.936 44.732 57.524 43.748 57.548 42.668C57.548 42.356 57.476 41.996 57.332 41.588C57.164 41.06 56.96 40.796 56.72 40.796C56.384 40.796 56.216 40.928 56.216 41.192C56.216 41.336 56.264 41.456 56.36 41.552C56.456 41.648 56.564 41.744 56.684 41.84C56.804 41.936 56.912 42.032 57.008 42.128C57.104 42.224 57.152 42.32 57.152 42.416C57.152 43.808 56.036 44.984 53.804 45.944C53.924 45.824 54.044 45.692 54.164 45.548C54.308 45.428 54.452 45.308 54.596 45.188C55.748 44.228 56.348 43.388 56.396 42.668C56.372 42.572 56.324 42.488 56.252 42.416C56.108 42.464 55.988 42.512 55.892 42.56L55.46 42.812C55.316 42.908 55.208 42.92 55.136 42.848C51.32 39.392 49.148 35.252 48.62 30.428C48.812 30.38 48.98 30.344 49.124 30.32C49.292 30.272 49.424 30.224 49.52 30.176L49.448 30.212C49.784 30.188 50.108 30.188 50.42 30.212C50.732 30.212 51.044 30.224 51.356 30.248C53.588 30.464 54.704 31.34 54.704 32.876C54.704 33.5 54.452 33.848 53.948 33.92C53.492 33.992 53.24 34.088 53.192 34.208C53.168 34.544 53.276 34.784 53.516 34.928C53.756 35.072 54.044 35.108 54.38 35.036C55.196 34.892 55.604 34.352 55.604 33.416C55.604 31.856 54.62 30.716 52.652 29.996C53.684 30.092 54.5 30.428 55.1 31.004C55.844 31.676 56.216 32.708 56.216 34.1C56.216 34.748 55.976 35.408 55.496 36.08C55.016 36.704 54.464 37.016 53.84 37.016C53.456 37.016 53.012 36.704 52.508 36.08C52.028 35.432 51.44 35.048 50.744 34.928C50.696 34.904 50.648 34.928 50.6 35C50.576 35.048 50.588 35.144 50.636 35.288C50.708 35.576 50.804 35.78 50.924 35.9C52.052 37.1 53.096 37.664 54.056 37.592C54.44 37.568 54.8 37.46 55.136 37.268C55.472 37.076 55.76 36.836 56 36.548C56.264 36.26 56.456 35.936 56.576 35.576C56.72 35.192 56.792 34.796 56.792 34.388C56.792 32.852 56.336 31.616 55.424 30.68C54.512 29.744 53.264 29.276 51.68 29.276C50.6 29.276 49.556 29.432 48.548 29.744C48.524 29.456 48.5 29.168 48.476 28.88C48.476 28.592 48.476 28.316 48.476 28.052V26.936C48.476 26.744 48.476 26.564 48.476 26.396C48.476 26.228 48.488 26.06 48.512 25.892C48.632 25.748 48.764 25.604 48.908 25.46C49.052 25.292 49.22 25.124 49.412 24.956C49.508 25.268 49.616 25.592 49.736 25.928C49.856 26.264 50.048 26.444 50.312 26.468C50.528 26.492 51.008 26.264 51.752 25.784C52.472 25.328 52.832 25.052 52.832 24.956C52.856 24.668 52.424 24.26 51.536 23.732C52.664 23.684 53.552 23.972 54.2 24.596C54.704 24.164 54.956 23.768 54.956 23.408C54.956 23.336 54.932 23.228 54.884 23.084H55.28C55.616 23.084 55.94 23.228 56.252 23.516C56.588 23.78 56.768 24.068 56.792 24.38C56.792 24.596 56.504 24.848 55.928 25.136C55.376 25.4 55.088 25.652 55.064 25.892C55.016 26.228 55.244 26.396 55.748 26.396C55.82 26.396 55.952 26.372 56.144 26.324C56.936 26.084 57.332 25.46 57.332 24.452C57.332 23.852 56.924 23.396 56.108 23.084C55.46 22.82 54.8 22.688 54.128 22.688C51.992 22.664 50.144 23.48 48.584 25.136C48.656 24.608 48.716 24.2 48.764 23.912C48.812 23.6 48.848 23.396 48.872 23.3C50.84 20.132 53.12 18.548 55.712 18.548C55.856 18.548 56.06 18.656 56.324 18.872C56.948 19.424 57.38 19.7 57.62 19.7C57.764 19.7 57.8 19.484 57.728 19.052C57.704 18.884 57.608 18.728 57.44 18.584C57.296 18.416 57.116 18.284 56.9 18.188C56.708 18.068 56.492 17.972 56.252 17.9C56.036 17.828 55.832 17.792 55.64 17.792C54.656 17.768 53.432 18.272 51.968 19.304C52.16 18.872 52.652 18.32 53.444 17.648C53.732 17.408 54.02 17.168 54.308 16.928C54.596 16.688 54.896 16.436 55.208 16.172C56.888 14.732 57.728 13.472 57.728 12.392C57.728 12.104 57.524 11.96 57.116 11.96C56.9 11.96 56.792 12.02 56.792 12.14C56.792 12.236 56.816 12.356 56.864 12.5C56.936 12.644 56.972 12.764 56.972 12.86C56.972 13.484 56.516 14.252 55.604 15.164C54.332 16.364 53.36 17.228 52.688 17.756C51.368 18.932 50.276 20.204 49.412 21.572C49.868 20.324 50.624 19.064 51.68 17.792C51.56 17.288 51.308 17.036 50.924 17.036C48.236 19.94 46.544 23.264 45.848 27.008L44.912 27.98C44.432 28.46 43.904 28.988 43.328 29.564C42.776 30.14 42.176 30.74 41.528 31.364L40.772 32.12L42.824 29.276C43.496 28.364 44.012 27.644 44.372 27.116C44.756 26.588 44.996 26.24 45.092 26.072C47.204 22.568 48.476 19.052 48.908 15.524C49.676 15.908 50.612 16.1 51.716 16.1C53.012 16.1 54.032 15.62 54.776 14.66C55.472 13.748 55.82 12.656 55.82 11.384C55.82 10.472 55.22 9.728 54.02 9.152C52.58 8.504 51.68 7.748 51.32 6.884C51.056 7.34 50.924 7.88 50.924 8.504C50.924 9.44 51.572 10.208 52.868 10.808C54.188 11.432 54.86 12.068 54.884 12.716C54.908 13.076 54.8 13.448 54.56 13.832C54.32 14.216 54.032 14.408 53.696 14.408C52.736 14.408 51.836 13.988 50.996 13.148C50.66 12.74 50.336 12.344 50.024 11.96C49.712 11.552 49.388 11.144 49.052 10.736C49.028 9.464 48.656 8.216 47.936 6.992C47.24 5.768 46.412 5.156 45.452 5.156C44.732 5.156 44.252 5.516 44.012 6.236L44.192 6.596C44.48 5.9 44.864 5.552 45.344 5.552C46.232 5.552 46.976 6.104 47.576 7.208C48.056 8.072 48.344 9.02 48.44 10.052C46.664 8.132 44.42 7.196 41.708 7.244C41.66 7.244 41.612 7.256 41.564 7.28H41.42C39.692 4.64 37.436 2.96 34.652 2.24C35.06 1.472 35.588 1.088 36.236 1.088C36.62 1.088 36.944 1.268 37.208 1.628C37.232 1.58 37.244 1.508 37.244 1.412C37.244 1.172 37.088 0.967998 36.776 0.799998C36.488 0.607998 36.224 0.511998 35.984 0.511998C35.264 0.511998 34.712 1.064 34.328 2.168C33.416 1.952 32.444 1.844 31.412 1.844C29.636 1.844 28.028 2.096 26.588 2.6C24.74 3.296 23.816 4.172 23.816 5.228C23.816 5.54 23.888 5.84 24.032 6.128C24.32 6.752 24.62 7.076 24.932 7.1C25.076 7.148 25.148 7.028 25.148 6.74C25.148 6.668 25.1 6.596 25.004 6.524C24.932 6.452 24.848 6.356 24.752 6.236C24.68 6.116 24.596 5.96 24.5 5.768C24.428 5.576 24.392 5.336 24.392 5.048C24.392 4.592 24.632 4.184 25.112 3.824C26.576 2.744 28.64 2.204 31.304 2.204C32.24 2.204 33.212 2.336 34.22 2.6C34.172 3.896 34.712 5.048 35.84 6.056C36.056 6.248 36.308 6.428 36.596 6.596C36.908 6.764 37.256 6.932 37.64 7.1C37.976 7.22 38.3 7.34 38.612 7.46C38.924 7.58 39.248 7.7 39.584 7.82C38.984 8.252 38.684 9.128 38.684 10.448C38.684 10.88 39.056 11.396 39.8 11.996C40.52 12.596 40.904 13.088 40.952 13.472C40.952 13.592 40.916 13.748 40.844 13.94C40.772 14.132 40.736 14.288 40.736 14.408C41.168 14.432 41.504 14.204 41.744 13.724C41.936 13.292 42.032 12.992 42.032 12.824C42.032 12.776 41.72 12.332 41.096 11.492C40.52 10.676 40.172 10.004 40.052 9.476C39.956 9.044 40.148 8.66 40.628 8.324C41.3 8.708 41.816 9.152 42.176 9.656C43.496 12.368 44.156 15.272 44.156 18.368C44.156 21.512 43.472 24.56 42.104 27.512C40.784 30.392 38.936 32.948 36.56 35.18C34.232 36.716 31.796 37.904 29.252 38.744L29.504 39.14H29.648ZM40.772 7.352C40.076 7.472 39.224 7.328 38.216 6.92C37.232 6.512 36.512 6.104 36.056 5.696C35.072 4.784 34.58 3.788 34.58 2.708C37.1 3.5 39.164 5.048 40.772 7.352ZM41.348 8.18C41.42 8.372 41.468 8.48 41.492 8.504L41.456 8.468C41.336 8.276 41.216 8.18 41.096 8.18H41.348ZM41.06 42.488C40.316 42.032 39.572 41.804 38.828 41.804C38.276 41.804 37.772 41.876 37.316 42.02C37.724 41.732 38.084 41.48 38.396 41.264C38.708 41.048 38.972 40.868 39.188 40.724C39.524 40.964 39.848 41.24 40.16 41.552C40.472 41.84 40.772 42.152 41.06 42.488ZM43.364 45.08C43.364 45.152 43.376 45.224 43.4 45.296V45.476C43.4 46.82 42.836 48.056 41.708 49.184C40.604 50.288 39.356 50.864 37.964 50.912H37.604C36.62 50.912 35.78 50.456 35.084 49.544C34.508 48.752 34.196 47.828 34.148 46.772C34.1 45.716 34.604 44.72 35.66 43.784C36.692 42.848 37.712 42.38 38.72 42.38C39.512 42.38 40.292 42.644 41.06 43.172C41.876 43.7 42.284 44.228 42.284 44.756C42.284 45.74 41.6 46.412 40.232 46.772C39.848 46.868 39.548 46.94 39.332 46.988C39.116 47.06 38.96 47.12 38.864 47.168C38.384 47.432 38.144 47.792 38.144 48.248C38.144 49.208 38.648 49.688 39.656 49.688C39.728 49.688 39.764 49.664 39.764 49.616C39.764 49.568 39.704 49.448 39.584 49.256C39.488 49.088 39.44 48.956 39.44 48.86C39.44 48.548 39.992 48.212 41.096 47.852C41.912 47.612 42.428 47.096 42.644 46.304C42.668 46.256 42.68 46.124 42.68 45.908C42.68 45.716 42.692 45.44 42.716 45.08C42.74 44.624 42.824 44.48 42.968 44.648C42.992 44.696 43.124 44.84 43.364 45.08ZM44.372 21.212C44.372 21.188 44.384 21.164 44.408 21.14V21.068C45.68 20.588 46.352 19.7 46.424 18.404C46.16 18.956 45.8 19.232 45.344 19.232C45.296 19.232 45.152 19.208 44.912 19.16C45.416 17.912 45.932 17.288 46.46 17.288H46.82C46.94 17.288 47 17.228 47 17.108C47 16.844 46.808 16.712 46.424 16.712C45.8 16.712 45.176 17.528 44.552 19.16V18.332C44.552 14.588 43.712 11.252 42.032 8.324C42.584 8.54 43.1 8.936 43.58 9.512C43.94 10.04 44.3 10.556 44.66 11.06C45.02 11.564 45.368 12.068 45.704 12.572C46.568 13.796 47.444 14.672 48.332 15.2C48.116 17.024 47.684 18.836 47.036 20.636C45.548 24.716 43.4 28.34 40.592 31.508C42.68 28.46 43.94 25.028 44.372 21.212ZM15.824 23.084C15.968 23.804 16.208 24.488 16.544 25.136C16.904 25.76 17.336 26.336 17.84 26.864C18.344 27.368 18.908 27.812 19.532 28.196C20.18 28.556 20.864 28.82 21.584 28.988C22.808 29.996 23.42 31.124 23.42 32.372V32.444C23.276 32.42 23.144 32.408 23.024 32.408C22.928 32.384 22.856 32.372 22.808 32.372C22.064 32.372 21.332 32.744 20.612 33.488C19.676 34.472 19.208 35.384 19.208 36.224C19.208 36.392 19.244 36.656 19.316 37.016C19.412 37.352 19.46 37.616 19.46 37.808C19.46 37.952 19.412 38.024 19.316 38.024C18.668 38.024 18.008 37.808 17.336 37.376C16.64 36.896 16.292 36.404 16.292 35.9C16.292 35.348 16.82 34.904 17.876 34.568C18.956 34.208 19.496 33.668 19.496 32.948C19.496 32.54 19.448 32.324 19.352 32.3C19.28 32.276 19.148 32.324 18.956 32.444C18.332 32.9 17.96 33.128 17.84 33.128C16.424 33.128 15.716 33.86 15.716 35.324C15.716 36.428 16.052 37.28 16.724 37.88C17.396 38.48 18.284 38.78 19.388 38.78C19.724 38.78 19.928 38.768 20 38.744C21.008 40.304 22.592 41.564 24.752 42.524C24.968 42.644 25.94 43.004 27.668 43.604C28.844 43.988 29.768 44.432 30.44 44.936C30.896 45.656 31.196 46.304 31.34 46.88C31.46 46.928 31.592 46.832 31.736 46.592C32.12 45.992 32.312 45.416 32.312 44.864C32.312 43.376 31.58 42.152 30.116 41.192C29.396 40.712 27.992 40.088 25.904 39.32C25.016 38.984 24.26 38.696 23.636 38.456C23.012 38.216 22.532 38 22.196 37.808C23.132 37.04 23.72 35.924 23.96 34.46C24.944 35.204 25.688 35.576 26.192 35.576C26.408 35.576 26.648 35.528 26.912 35.432C27.2 35.336 27.452 35.216 27.668 35.072C27.908 34.904 28.112 34.724 28.28 34.532C28.448 34.316 28.532 34.1 28.532 33.884C28.484 33.884 28.4 33.908 28.28 33.956C28.16 34.004 28.028 34.052 27.884 34.1C27.74 34.124 27.584 34.16 27.416 34.208C27.272 34.232 27.152 34.244 27.056 34.244C26.864 34.244 26.396 34.016 25.652 33.56C25.196 33.296 24.836 33.092 24.572 32.948C24.308 32.804 24.14 32.708 24.068 32.66C24.044 31.292 23.588 30.116 22.7 29.132C22.82 29.132 22.928 29.144 23.024 29.168H23.348C24.068 29.168 24.764 29.06 25.436 28.844C26.132 28.628 26.756 28.328 27.308 27.944C27.86 27.536 28.34 27.068 28.748 26.54C29.18 25.988 29.504 25.364 29.72 24.668C30.8 25.748 31.34 27.356 31.34 29.492C31.34 29.732 31.328 29.972 31.304 30.212C31.304 30.452 31.292 30.692 31.268 30.932C31.148 31.748 31.004 32.204 30.836 32.3C30.908 32.276 30.956 32.156 30.98 31.94C31.004 31.724 31.016 31.508 31.016 31.292C31.04 31.052 31.052 30.8 31.052 30.536V29.996C31.052 29.684 30.932 29.36 30.692 29.024C30.14 28.304 29.54 27.884 28.892 27.764C28.604 27.716 28.424 27.848 28.352 28.16C28.328 28.256 28.376 28.352 28.496 28.448C28.64 28.544 28.76 28.592 28.856 28.592C28.952 28.592 29.048 28.592 29.144 28.592C29.264 28.568 29.384 28.544 29.504 28.52C29.648 28.496 29.804 28.52 29.972 28.592C30.164 28.64 30.2 28.712 30.08 28.808C29.936 28.904 29.828 28.964 29.756 28.988C29.372 29.156 29.216 29.276 29.288 29.348C29.408 29.564 29.684 29.756 30.116 29.924C30.452 30.116 30.62 30.368 30.62 30.68V31.076C30.284 30.812 30.044 30.68 29.9 30.68C29.564 30.68 29.396 30.884 29.396 31.292C29.396 31.412 29.408 31.508 29.432 31.58C28.832 31.436 28.532 31.64 28.532 32.192C28.532 32.432 28.616 32.672 28.784 32.912C28.952 33.128 29.204 33.26 29.54 33.308C29.78 33.356 29.96 33.536 30.08 33.848C29.72 34.424 29.108 35.144 28.244 36.008L28.532 36.116C30.812 34.22 31.94 32.048 31.916 29.6C31.844 26.984 31.16 25.148 29.864 24.092C29.912 23.78 29.948 23.492 29.972 23.228C30.02 22.964 30.044 22.7 30.044 22.436C30.044 22.292 30.02 22.1 29.972 21.86C29.924 21.62 29.9 21.428 29.9 21.284C30.212 20.948 30.524 20.612 30.836 20.276C31.172 19.916 31.34 19.52 31.34 19.088C31.34 18.872 31.232 18.656 31.016 18.44C30.824 18.224 30.632 18.02 30.44 17.828C30.32 18.476 30.152 18.8 29.936 18.8C29.672 18.8 29.54 18.476 29.54 17.828C29.54 17.54 29.636 17.24 29.828 16.928C29.948 16.736 30.128 16.748 30.368 16.964C30.512 17.108 30.632 17.18 30.728 17.18C30.896 17.18 30.98 17.108 30.98 16.964C30.98 16.82 30.848 16.652 30.584 16.46C30.344 16.268 30.152 16.172 30.008 16.172C29.336 16.172 28.964 16.616 28.892 17.504C28.868 17.864 28.868 18.236 28.892 18.62C28.916 19.028 28.952 19.352 29 19.592C28.016 18.464 26.66 17.888 24.932 17.864C23.924 17.84 23.108 18.152 22.484 18.8C21.86 19.424 21.548 20.24 21.548 21.248C21.548 21.896 21.8 22.472 22.304 22.976C22.808 23.48 23.06 23.888 23.06 24.2C22.892 24.488 22.832 24.884 22.88 25.388C22.88 25.508 22.904 25.568 22.952 25.568C23.144 25.568 23.408 25.292 23.744 24.74C24.056 24.188 24.212 23.78 24.212 23.516C24.212 23.132 24.02 22.64 23.636 22.04C23.252 21.416 23.06 20.9 23.06 20.492C23.06 19.844 23.372 19.316 23.996 18.908C24.548 18.572 25.16 18.404 25.832 18.404C26.36 18.404 26.84 18.524 27.272 18.764C27.704 19.004 28.064 19.316 28.352 19.7C28.664 20.06 28.892 20.492 29.036 20.996C29.204 21.5 29.288 22.028 29.288 22.58V22.688C29.288 23.312 29.06 23.576 28.604 23.48C27.572 23.24 26.984 23.12 26.84 23.12C26.6 23.12 26.348 23.216 26.084 23.408C25.82 23.6 25.688 23.816 25.688 24.056C25.688 24.104 25.748 24.128 25.868 24.128C25.964 24.128 26.036 24.104 26.084 24.056C26.18 23.816 26.6 23.696 27.344 23.696C27.968 23.696 28.556 23.864 29.108 24.2C28.82 25.472 28.064 26.504 26.84 27.296C25.736 28.04 24.488 28.412 23.096 28.412C22.64 28.412 22.22 28.376 21.836 28.304C21.38 27.944 20.936 27.584 20.504 27.224C20.072 26.864 19.64 26.504 19.208 26.144C18.224 25.352 17.432 24.524 16.832 23.66C16.784 23.3 16.736 22.976 16.688 22.688C16.664 22.4 16.652 22.16 16.652 21.968C16.652 19.352 17.468 17.336 19.1 15.92C18.02 16.904 17.48 18.272 17.48 20.024C17.48 20.456 17.636 20.9 17.948 21.356C18.26 21.788 18.62 22.004 19.028 22.004C19.556 22.004 19.832 21.812 19.856 21.428C19.88 21.284 19.808 21.152 19.64 21.032C19.472 20.912 19.316 20.852 19.172 20.852C19.076 20.852 18.968 20.924 18.848 21.068C18.728 21.188 18.62 21.248 18.524 21.248C18.02 21.248 17.768 20.864 17.768 20.096C17.768 20 17.768 19.904 17.768 19.808C17.768 19.712 17.78 19.616 17.804 19.52C17.828 19.136 17.96 18.956 18.2 18.98C18.344 19.028 18.512 19.16 18.704 19.376C18.824 18.92 18.872 18.524 18.848 18.188C18.824 17.828 18.752 17.444 18.632 17.036L18.956 16.604C19.196 17.18 19.376 17.468 19.496 17.468C19.808 17.468 19.964 17.312 19.964 17C19.964 16.928 19.928 16.832 19.856 16.712C20.6 16.616 20.972 16.364 20.972 15.956C20.972 15.644 20.852 15.284 20.612 14.876C21.908 14.228 23.336 13.904 24.896 13.904C25.592 14.024 26.264 14.192 26.912 14.408C27.584 14.624 28.232 14.876 28.856 15.164C30.68 16.052 32.132 17.204 33.212 18.62C34.412 20.228 34.976 21.98 34.904 23.876C34.88 25.148 34.7 26.42 34.364 27.692C33.308 31.892 30.932 35.012 27.236 37.052L27.776 37.268C29.12 36.62 30.284 35.804 31.268 34.82C34.1 31.964 35.516 28.148 35.516 23.372C35.516 20.588 34.412 18.2 32.204 16.208C29.924 14.168 26.972 13.148 23.348 13.148C21.38 13.148 18.812 13.664 15.644 14.696C12.404 15.704 10.376 16.196 9.56 16.172C8.624 16.124 8.012 16.04 7.724 15.92C7.22 15.68 6.944 15.164 6.896 14.372C6.896 13.772 6.656 13.232 6.176 12.752C5.696 12.272 5.144 11.972 4.52 11.852C4.592 11.42 4.736 11.012 4.952 10.628C5.168 10.244 5.432 9.908 5.744 9.62C6.056 9.308 6.404 9.068 6.788 8.9C7.148 8.708 7.532 8.612 7.94 8.612C8.18 8.612 8.432 8.66 8.696 8.756C8.936 8.852 9.164 8.984 9.38 9.152C9.596 9.296 9.776 9.476 9.92 9.692C10.04 9.884 10.1 10.088 10.1 10.304C10.1 10.736 9.932 11.132 9.596 11.492C9.26 11.828 8.876 11.996 8.444 11.996C8.324 11.996 8.18 11.924 8.012 11.78C7.604 11.444 7.34 11.264 7.22 11.24C7.124 11.24 7.076 11.372 7.076 11.636C7.076 12.14 7.664 12.392 8.84 12.392C9.344 12.392 9.74 12.164 10.028 11.708C10.316 11.252 10.46 10.76 10.46 10.232C10.46 9.632 10.148 9.116 9.524 8.684C8.9 8.252 8.276 8.036 7.652 8.036C6.74 8.036 5.924 8.432 5.204 9.224C4.46 9.992 4.016 10.856 3.872 11.816C3.416 11.864 3.008 11.996 2.648 12.212C2.264 12.428 1.94 12.704 1.676 13.04C1.412 13.376 1.208 13.772 1.064 14.228C0.92 14.66 0.848 15.116 0.848 15.596C0.848 16.388 0.992 17.096 1.28 17.72C1.544 18.344 1.928 18.884 2.432 19.34C2.936 19.772 3.536 20.108 4.232 20.348C4.904 20.564 5.648 20.672 6.464 20.672C8.528 20.672 10.628 19.988 12.764 18.62C13.292 18.284 13.808 17.948 14.312 17.612C14.84 17.276 15.368 16.94 15.896 16.604C17.072 15.86 18.176 15.272 19.208 14.84C18.128 15.752 17.264 16.868 16.616 18.188C15.992 19.484 15.692 20.816 15.716 22.184C15.716 22.736 15.74 23.012 15.788 23.012H15.752L15.824 23.084ZM17.264 24.92C17.72 25.448 18.188 25.964 18.668 26.468C19.172 26.948 19.7 27.416 20.252 27.872C18.836 27.248 17.84 26.264 17.264 24.92ZM37.208 23.444C37.184 24.212 37.136 24.956 37.064 25.676C36.992 26.372 36.872 27.032 36.704 27.656C36.104 29.96 35.036 31.988 33.5 33.74C31.988 35.492 30.14 36.812 27.956 37.7L28.892 38.024C32.564 36.608 35.504 34.412 37.712 31.436C39.896 28.46 40.988 25.244 40.988 21.788C40.988 17.66 39.98 14.312 37.964 11.744C35.756 9.032 32.744 7.676 28.928 7.676C27.584 7.676 25.496 8.216 22.664 9.296C19.784 10.352 17.78 10.88 16.652 10.88C15.788 10.88 14.912 10.628 14.024 10.124C13.016 9.596 12.512 9.032 12.512 8.432C12.512 8.216 12.668 7.916 12.98 7.532C13.316 7.124 13.604 6.92 13.844 6.92C14.42 6.92 15.08 7.112 15.824 7.496C16.568 7.856 17.228 8.036 17.804 8.036C18.14 8.036 18.512 7.928 18.92 7.712C19.712 7.232 20.132 6.68 20.18 6.056C20.18 5.768 20.012 5.552 19.676 5.408C19.556 5.984 19.304 6.284 18.92 6.308C18.488 6.356 18.044 6.296 17.588 6.128C17.564 6.128 17.084 5.948 16.148 5.588C15.572 5.348 15.116 5.228 14.78 5.228C14.036 5.228 13.364 5.444 12.764 5.876C12.092 6.38 11.756 6.98 11.756 7.676C11.756 9.116 12.536 10.268 14.096 11.132C15.344 11.9 16.748 12.26 18.308 12.212C18.788 12.212 19.376 12.176 20.072 12.104C20.768 12.032 21.572 11.912 22.484 11.744C23.42 11.576 24.248 11.456 24.968 11.384C25.688 11.288 26.288 11.24 26.768 11.24C30.032 11.24 32.648 12.44 34.616 14.84C36.392 17 37.256 19.868 37.208 23.444ZM20.612 35.864C20.612 34.4 21.116 33.668 22.124 33.668C22.772 33.668 23.12 33.848 23.168 34.208C23.216 34.616 23.132 35.024 22.916 35.432C22.46 36.44 22.004 37.088 21.548 37.376C20.924 36.896 20.612 36.392 20.612 35.864ZM4.448 12.608C5 12.728 5.528 13.004 6.032 13.436C6.392 13.796 6.572 14.156 6.572 14.516C6.572 14.732 6.5 14.96 6.356 15.2C5.108 14.48 4.472 13.616 4.448 12.608ZM6.104 15.632C5.984 15.776 5.876 15.92 5.78 16.064C5.66 16.208 5.54 16.352 5.42 16.496C5.132 16.856 4.988 17.168 4.988 17.432C4.988 17.96 5.24 18.224 5.744 18.224C5.528 17.936 5.408 17.684 5.384 17.468C5.336 17.348 5.48 17.072 5.816 16.64C5.912 16.496 6.008 16.352 6.104 16.208C6.2 16.064 6.296 15.92 6.392 15.776C7.712 16.4 9.2 16.712 10.856 16.712C10.928 16.712 12.092 16.328 14.348 15.56C15.644 15.104 16.808 14.744 17.84 14.48C18.872 14.192 19.796 13.988 20.612 13.868C20.588 13.892 20.564 13.904 20.54 13.904C20.54 13.904 20.528 13.916 20.504 13.94C17.384 15.092 14.336 16.616 11.36 18.512C10.352 19.16 9.596 19.592 9.092 19.808C8.228 20.168 7.364 20.336 6.5 20.312C5.18 20.288 4.016 19.928 3.008 19.232C1.832 18.416 1.244 17.252 1.244 15.74C1.244 15.38 1.316 15.02 1.46 14.66C1.604 14.276 1.796 13.94 2.036 13.652C2.276 13.364 2.564 13.124 2.9 12.932C3.212 12.74 3.548 12.62 3.908 12.572C4.004 13.796 4.736 14.816 6.104 15.632ZM43.364 44.324C43.1 43.988 42.824 43.652 42.536 43.316C42.248 42.956 41.96 42.608 41.672 42.272C41.36 41.864 41.048 41.504 40.736 41.192C40.424 40.88 40.1 40.604 39.764 40.364C39.908 40.316 40.052 40.232 40.196 40.112C41.9 41.072 42.956 42.476 43.364 44.324ZM37.82 39.32C38.036 39.368 38.288 39.44 38.576 39.536C38.864 39.608 39.2 39.704 39.584 39.824L39.26 40.04L38.576 39.644L37.82 39.32ZM68.3334 24.02C67.6614 24.692 67.2534 25.508 67.1094 26.468C66.4854 26.996 65.8854 27.584 65.3094 28.232C64.7334 28.88 64.2054 29.6 63.7254 30.392C62.6694 32.096 62.1294 33.68 62.1054 35.144C62.0574 37.784 63.0294 39.968 65.0214 41.696C66.7734 43.232 68.6934 44 70.7814 44C71.0214 42.056 71.5134 40.928 72.2574 40.616C72.2094 40.256 72.1134 40.052 71.9694 40.004C71.8014 39.956 71.6454 39.98 71.5014 40.076C70.8774 40.436 70.5534 40.616 70.5294 40.616C69.1134 40.616 67.7574 39.812 66.4614 38.204C65.1894 36.668 64.5534 35.144 64.5534 33.632C64.5534 30.704 65.3934 28.556 67.0734 27.188V27.404C67.1454 27.452 67.2414 27.524 67.3614 27.62C67.5054 27.716 67.6734 27.824 67.8654 27.944C69.6894 29.12 70.6014 30.596 70.6014 32.372C70.6014 33.644 69.6894 34.832 67.8654 35.936L68.1534 36.476C69.5694 35.66 70.5894 34.868 71.2134 34.1C72.1974 32.9 72.6894 31.448 72.6894 29.744C72.6894 28.544 72.2334 27.308 71.3214 26.036C70.4334 24.788 69.4374 24.116 68.3334 24.02ZM68.6574 30.644C67.6974 30.596 66.9774 31.052 66.4974 32.012C66.0894 32.78 65.8854 33.68 65.8854 34.712C65.8854 35.792 66.1494 36.74 66.6774 37.556C67.0614 38.204 67.7334 38.936 68.6934 39.752C68.8854 39.752 68.9694 39.644 68.9454 39.428C68.2494 38.972 67.6614 38.336 67.1814 37.52C66.7014 36.704 66.4614 35.9 66.4614 35.108C66.4614 34.94 66.4614 34.76 66.4614 34.568C66.4854 34.376 66.5094 34.184 66.5334 33.992C66.7254 32.48 67.3134 31.664 68.2974 31.544C68.5854 31.328 68.7294 31.112 68.7294 30.896C68.7294 30.824 68.7054 30.74 68.6574 30.644ZM85.9168 27.296C85.7968 27.512 85.7488 27.692 85.7728 27.836C85.7728 28.028 85.8448 28.124 85.9888 28.124C86.1088 28.124 86.2408 28.088 86.3848 28.016C86.5288 27.944 86.6368 27.908 86.7088 27.908C86.7808 27.908 86.8408 27.92 86.8888 27.944V38.06C86.6968 38.876 86.5048 39.5 86.3128 39.932C85.7848 41.036 85.0168 41.588 84.0088 41.588C83.6728 41.588 83.0968 41.492 82.2808 41.3C81.5128 41.108 80.9488 41.012 80.5888 41.012C80.2768 41.012 80.0368 41.06 79.8688 41.156C82.1968 38.132 83.3848 34.724 83.4328 30.932C83.4328 29.828 83.1208 28.484 82.4968 26.9C81.7528 25.004 80.8528 24.056 79.7968 24.056C79.3408 24.056 78.8608 24.56 78.3568 25.568C78.0448 26.192 77.7688 26.696 77.5288 27.08C77.3128 27.44 77.1448 27.692 77.0248 27.836C77.0248 28.076 77.1568 28.196 77.4208 28.196C77.4688 28.172 77.5888 28.076 77.7808 27.908C77.9728 27.74 78.1048 27.656 78.1768 27.656C78.7288 27.656 79.1848 27.884 79.5448 28.34C80.5048 29.54 80.9848 31.436 80.9848 34.028C80.9848 35.492 80.7928 36.944 80.4088 38.384C79.9288 40.16 79.3768 41.36 78.7528 41.984L78.6448 42.092C78.5968 42.14 78.5248 42.212 78.4288 42.308C78.3568 42.38 78.2608 42.464 78.1408 42.56C77.5888 43.04 77.3008 43.4 77.2768 43.64C77.2288 43.784 77.3368 43.856 77.6008 43.856C78.4648 43.472 79.0888 43.28 79.4728 43.28C79.6648 43.28 79.8928 43.316 80.1568 43.388C80.4448 43.436 80.7328 43.496 81.0208 43.568C81.3328 43.64 81.6448 43.712 81.9568 43.784C82.2688 43.832 82.5568 43.856 82.8208 43.856C83.3488 43.856 83.8168 43.736 84.2248 43.496C85.6408 42.776 86.6368 41.684 87.2128 40.22C87.8128 42.572 89.3248 43.832 91.7488 44C91.9408 43.496 92.2768 42.944 92.7568 42.344C92.9968 42.08 93.2248 41.828 93.4408 41.588C93.6568 41.348 93.8848 41.108 94.1248 40.868C97.1248 37.364 98.6248 33.968 98.6248 30.68C98.6248 28.664 98.3488 27.104 97.7968 26C97.0048 24.512 95.6968 23.816 93.8728 23.912C93.6328 25.088 93.0808 26.192 92.2168 27.224L92.3608 27.872C92.6488 27.656 93.0088 27.476 93.4408 27.332C94.4248 27.884 95.0968 28.532 95.4568 29.276C95.8168 30.044 95.9968 31.268 95.9968 32.948C95.9968 36.164 95.0608 38.792 93.1888 40.832C91.1248 40.568 90.0928 39.44 90.0928 37.448V24.596C90.0928 24.14 89.7328 23.924 89.0128 23.948C87.8128 25.7 86.7808 26.816 85.9168 27.296ZM94.0528 31.256C94.0768 31.016 93.9688 30.824 93.7288 30.68C91.4968 31.256 90.4888 33.788 90.7048 38.276C90.7528 38.444 90.8248 38.54 90.9208 38.564C90.8488 37.988 90.8128 37.436 90.8128 36.908C90.8128 33.908 91.8928 32.024 94.0528 31.256ZM86.2408 31.544C86.3368 31.184 86.1448 30.932 85.6648 30.788C84.1528 31.7 83.3968 33.188 83.3968 35.252C83.3968 35.54 83.4208 35.912 83.4688 36.368C83.5168 36.8 83.5888 37.328 83.6848 37.952C83.9008 39.176 84.1168 39.704 84.3328 39.536C83.9728 36.92 83.7928 35.504 83.7928 35.288C83.7928 34.52 84.0208 33.764 84.4768 33.02C84.9568 32.252 85.5448 31.76 86.2408 31.544ZM143.366 28.52C144.182 28.184 145.01 28.016 145.85 28.016H146.39C146.51 28.016 146.69 28.04 146.93 28.088C146.81 28.28 146.69 28.484 146.57 28.7C146.474 28.892 146.366 29.084 146.246 29.276C145.982 29.564 145.574 29.708 145.022 29.708C144.638 29.708 144.446 29.864 144.446 30.176C144.446 30.464 144.59 30.608 144.878 30.608C144.974 30.608 145.058 30.56 145.13 30.464C145.202 30.344 145.286 30.284 145.382 30.284C145.358 30.284 145.466 30.308 145.706 30.356C145.01 31.916 144.614 32.768 144.518 32.912L144.374 31.976C144.326 31.736 144.278 31.496 144.23 31.256C144.182 31.016 144.134 30.764 144.086 30.5C143.798 29.18 143.546 28.52 143.33 28.52H143.366ZM143.762 34.964C143.498 33.428 142.694 31.76 141.35 29.96C141.758 29.528 142.25 29.144 142.826 28.808C143.522 30.248 143.99 31.88 144.23 33.704C144.11 34.04 144.014 34.316 143.942 34.532C143.87 34.724 143.81 34.868 143.762 34.964ZM147.722 28.268C147.41 28.796 147.254 29.144 147.254 29.312C147.254 29.864 147.542 30.188 148.118 30.284C148.286 30.14 148.49 30.068 148.73 30.068C149.21 30.068 149.486 29.96 149.558 29.744C149.582 29.6 149.546 29.312 149.45 28.88C149.762 29.12 149.966 29.312 150.062 29.456C150.182 29.72 150.314 29.984 150.458 30.248C150.602 30.488 150.794 30.692 151.034 30.86C151.01 30.548 151.094 30.356 151.286 30.284C151.502 30.62 151.61 30.956 151.61 31.292C151.61 31.388 151.538 31.508 151.394 31.652C151.274 31.772 151.214 31.88 151.214 31.976C151.214 32.24 151.406 32.372 151.79 32.372C152.03 32.372 152.15 32.12 152.15 31.616C152.15 30.68 151.646 29.816 150.638 29.024C149.894 28.448 148.946 27.992 147.794 27.656C147.842 27.56 147.878 27.5 147.902 27.476C150.23 27.476 152.426 28.484 154.49 30.5C156.578 32.636 157.622 34.916 157.622 37.34C157.622 39.596 157.106 41.492 156.074 43.028C154.802 44.948 152.954 45.908 150.53 45.908C150.002 45.908 149.474 45.8 148.946 45.584C148.082 45.248 147.398 44.756 146.894 44.108C146.27 43.412 145.958 42.656 145.958 41.84C145.958 40.448 146.618 39.38 147.938 38.636C148.13 38.54 148.322 38.444 148.514 38.348C148.73 38.252 148.934 38.156 149.126 38.06C149.654 37.772 149.918 37.484 149.918 37.196C149.918 36.74 149.726 36.512 149.342 36.512C149.078 36.56 148.886 36.68 148.766 36.872C149.03 36.92 149.162 37.052 149.162 37.268C149.162 37.46 148.91 37.676 148.406 37.916C148.214 37.988 148.034 38.06 147.866 38.132C147.698 38.204 147.53 38.276 147.362 38.348C146.162 39.044 145.562 40.172 145.562 41.732C145.562 42.908 146.006 43.94 146.894 44.828C146.102 44.516 145.454 44.276 144.95 44.108C144.47 43.94 144.134 43.832 143.942 43.784C143.654 42.92 143.51 42.104 143.51 41.336C143.51 39.512 144.146 37.868 145.418 36.404C146.666 34.964 148.214 34.244 150.062 34.244C150.998 34.244 151.85 34.496 152.618 35C153.458 35.576 153.878 36.32 153.878 37.232C153.878 37.832 153.542 38.324 152.87 38.708C152.774 38.756 152.582 38.84 152.294 38.96C152.006 39.08 151.598 39.236 151.07 39.428C150.182 39.74 149.522 40.088 149.09 40.472C148.514 40.952 148.226 41.6 148.226 42.416C148.226 43.184 148.478 43.772 148.982 44.18C149.51 44.588 150.17 44.78 150.962 44.756C151.274 44.756 151.43 44.576 151.43 44.216C150.422 44.288 149.918 44.036 149.918 43.46C149.918 43.004 150.254 42.668 150.926 42.452C151.19 42.404 151.454 42.344 151.718 42.272C152.006 42.2 152.282 42.128 152.546 42.056C154.298 41.6 155.174 40.424 155.174 38.528C155.174 37.136 154.682 35.948 153.698 34.964C152.714 33.98 151.49 33.488 150.026 33.488C148.274 33.488 146.774 34.076 145.526 35.252C145.718 34.988 145.91 34.712 146.102 34.424C146.294 34.136 146.486 33.86 146.678 33.596C147.062 32.924 147.254 32.3 147.254 31.724C147.254 31.148 146.954 30.644 146.354 30.212C146.522 29.948 146.654 29.708 146.75 29.492C146.87 29.276 146.966 29.084 147.038 28.916C147.35 28.34 147.578 28.124 147.722 28.268ZM139.37 40.904V41.048L139.73 40.832C139.97 40.28 140.09 39.524 140.09 38.564C140.09 37.052 139.574 35.636 138.542 34.316L138.614 33.884C138.638 33.812 138.65 33.74 138.65 33.668C138.65 33.596 138.662 33.536 138.686 33.488C140.126 35.336 140.846 36.944 140.846 38.312C140.846 39.248 140.774 39.908 140.63 40.292C140.366 41.012 139.754 41.384 138.794 41.408L138.218 41.984C138.338 42.008 138.506 42.02 138.722 42.02C139.826 42.02 140.87 41.516 141.854 40.508C142.694 39.572 143.294 38.552 143.654 37.448H143.69C144.362 34.88 145.178 32.612 146.138 30.644C146.522 30.956 146.714 31.34 146.714 31.796C146.714 32.468 146.342 33.332 145.598 34.388L144.734 35.648C144.47 36.056 144.278 36.5 144.158 36.98C143.342 38.3 142.934 39.764 142.934 41.372C142.934 42.068 143.03 42.824 143.222 43.64C142.862 43.544 142.43 43.496 141.926 43.496H141.53C140.786 43.496 139.97 43.604 139.082 43.82C138.746 43.916 138.41 44.012 138.074 44.108C137.762 44.204 137.45 44.312 137.138 44.432C135.626 43.064 134.042 42.116 132.386 41.588L130.91 41.12C130.646 41.024 130.382 40.928 130.118 40.832C129.854 40.736 129.602 40.628 129.362 40.508C128.234 39.956 127.67 39.296 127.67 38.528C127.67 38.192 127.79 37.868 128.03 37.556C128.294 37.244 128.582 37.088 128.894 37.088C129.278 37.088 129.686 37.34 130.118 37.844C130.286 38.06 130.442 38.276 130.586 38.492C130.73 38.708 130.886 38.912 131.054 39.104C130.934 39.176 130.778 39.248 130.586 39.32C130.01 39.512 129.686 39.692 129.614 39.86C129.566 39.98 129.674 40.124 129.938 40.292C130.514 40.028 130.994 39.74 131.378 39.428C131.834 39.86 132.386 40.076 133.034 40.076C133.466 40.076 133.826 39.92 134.114 39.608C134.618 39.104 134.87 38.552 134.87 37.952C134.87 37.448 134.666 37.16 134.258 37.088C134.21 37.592 133.958 37.844 133.502 37.844C133.142 37.844 132.71 37.472 132.206 36.728C131.726 35.96 131.054 35.576 130.19 35.576C130.142 35.576 130.07 35.588 129.974 35.612C129.878 35.612 129.77 35.624 129.65 35.648C129.554 35.624 129.47 35.612 129.398 35.612C129.326 35.588 129.254 35.576 129.182 35.576H128.75C127.214 35.576 125.99 36.044 125.078 36.98C124.166 37.916 123.71 39.176 123.71 40.76C123.71 41.84 123.914 42.788 124.322 43.604C125.45 45.884 127.754 47.024 131.234 47.024C131.546 47.024 132.05 46.928 132.746 46.736C133.394 46.568 133.898 46.484 134.258 46.484C134.57 46.46 134.894 46.532 135.23 46.7C134.75 47.348 134.306 47.912 133.898 48.392C133.514 48.872 133.19 49.268 132.926 49.58C132.014 50.516 131.258 50.984 130.658 50.984C130.178 50.984 129.938 50.852 129.938 50.588C129.938 50.348 129.806 50.228 129.542 50.228C129.182 50.228 129.002 50.42 129.002 50.804C129.002 51.308 129.542 51.56 130.622 51.56C131.582 51.56 132.59 50.996 133.646 49.868C134.15 49.34 134.87 48.368 135.806 46.952C135.998 47.072 136.082 47.288 136.058 47.6C136.034 47.768 136.01 47.936 135.986 48.104C135.962 48.296 135.926 48.488 135.878 48.68C135.566 49.904 135.41 50.624 135.41 50.84C135.41 52.976 136.142 54.728 137.606 56.096C139.07 57.464 140.906 58.148 143.114 58.148C144.458 58.148 145.67 57.992 146.75 57.68C149.294 56.936 152.138 55.28 155.282 52.712V52.748C155.282 52.988 155.198 53.276 155.03 53.612C154.886 53.972 154.814 54.296 154.814 54.584C154.814 54.656 154.862 54.728 154.958 54.8C155.054 54.896 155.162 54.98 155.282 55.052C155.402 55.148 155.51 55.232 155.606 55.304C155.702 55.376 155.75 55.448 155.75 55.52C155.75 55.568 155.69 55.676 155.57 55.844C155.498 55.964 155.498 56.036 155.57 56.06C155.786 56.108 155.99 56.084 156.182 55.988C156.398 55.892 156.506 55.736 156.506 55.52C156.506 55.256 156.314 55.04 155.93 54.872C155.546 54.704 155.354 54.524 155.354 54.332C155.354 54.068 155.45 53.756 155.642 53.396C155.834 53.036 155.93 52.736 155.93 52.496V52.352C155.906 52.304 155.894 52.256 155.894 52.208C157.406 50.912 158.33 50.156 158.666 49.94C159.962 49.004 161.018 48.536 161.834 48.536C162.146 48.536 162.494 48.608 162.878 48.752C163.286 48.92 163.49 49.136 163.49 49.4C163.49 49.568 163.682 49.652 164.066 49.652C164.306 49.652 164.426 49.448 164.426 49.04C164.426 48.632 164.054 48.344 163.31 48.176C162.806 48.032 162.278 47.96 161.726 47.96C160.862 47.96 159.806 48.44 158.558 49.4L155.75 51.776C155.702 51.728 155.678 51.68 155.678 51.632C155.678 51.536 156.014 51.2 156.686 50.624C157.31 50.072 157.838 49.592 158.27 49.184C158.726 48.8 159.11 48.476 159.422 48.212C159.878 47.828 160.31 47.456 160.718 47.096C161.126 46.76 161.522 46.424 161.906 46.088C163.586 44.624 164.426 43.46 164.426 42.596C164.378 42.188 164.318 41.984 164.246 41.984C163.934 41.984 163.742 42.164 163.67 42.524C163.646 42.62 163.67 42.728 163.742 42.848C163.814 42.944 163.85 43.028 163.85 43.1C163.85 43.46 163.214 44.24 161.942 45.44C160.718 46.544 159.662 47.492 158.774 48.284C157.886 49.1 157.13 49.784 156.506 50.336L155.39 51.344C154.766 50.744 153.974 50.444 153.014 50.444C152.078 50.444 151.19 50.828 150.35 51.596C149.822 52.052 149.174 52.82 148.406 53.9C148.55 53.252 148.61 52.664 148.586 52.136C148.562 50.744 148.058 49.508 147.074 48.428C146.138 47.372 144.974 46.844 143.582 46.844C142.406 46.844 141.374 47.18 140.486 47.852C139.478 48.62 138.974 49.556 138.974 50.66C138.974 51.62 139.274 52.472 139.874 53.216C140.498 53.984 141.254 54.368 142.142 54.368C142.598 54.368 143.234 54.02 144.05 53.324C144.818 52.652 145.262 52.316 145.382 52.316C145.526 52.316 145.658 52.376 145.778 52.496C146.09 52.856 146.282 53.048 146.354 53.072C146.45 53.096 146.57 53.024 146.714 52.856C146.666 52.376 146.45 51.908 146.066 51.452C145.706 51.02 145.286 50.804 144.806 50.804C143.99 50.804 143.246 51.14 142.574 51.812C141.878 52.508 141.434 52.856 141.242 52.856C140.114 52.856 139.55 52.172 139.55 50.804C139.55 49.82 139.982 49.004 140.846 48.356C141.662 47.732 142.526 47.42 143.438 47.42C144.638 47.42 145.742 47.924 146.75 48.932C147.758 49.964 148.25 51.032 148.226 52.136C148.202 53.48 147.638 54.704 146.534 55.808C145.502 56.912 144.386 57.464 143.186 57.464H143.078C144.11 56.96 144.626 56.144 144.626 55.016C144.626 54.584 144.434 54.368 144.05 54.368C143.93 54.368 143.822 54.548 143.726 54.908C143.63 55.244 143.546 55.544 143.474 55.808C143.402 56.096 143.342 56.348 143.294 56.564C143.246 56.684 143.186 56.492 143.114 55.988C143.042 55.676 142.886 55.52 142.646 55.52C142.43 55.52 142.202 55.484 141.962 55.412C141.746 55.34 141.566 55.304 141.422 55.304C140.918 55.304 140.666 55.688 140.666 56.456C140.666 56.528 140.75 56.744 140.918 57.104C139.478 56.648 138.29 55.868 137.354 54.764C136.418 53.66 135.95 52.352 135.95 50.84C135.95 50.696 135.95 50.552 135.95 50.408C135.974 50.288 135.998 50.168 136.022 50.048C136.838 50.024 137.486 49.736 137.966 49.184C138.47 48.656 138.698 47.984 138.65 47.168C138.602 46.688 138.494 46.268 138.326 45.908C139.67 44.636 140.93 44 142.106 44C142.538 44 142.97 44.036 143.402 44.108C143.762 45.164 144.314 46.028 145.058 46.7C147.098 48.572 149.846 49.508 153.302 49.508C156.974 49.508 159.806 47.9 161.798 44.684C163.43 42.044 164.246 38.96 164.246 35.432C164.246 34.04 163.994 32.588 163.49 31.076C162.674 28.628 161.366 26.6 159.566 24.992C157.67 23.288 155.474 22.304 152.978 22.04C153.602 21.584 154.238 21.188 154.886 20.852C155.534 20.492 156.194 20.192 156.866 19.952C157.418 19.76 157.994 19.592 158.594 19.448C159.218 19.304 159.878 19.208 160.574 19.16C162.374 19.016 163.274 19.4 163.274 20.312C163.274 20.552 163.406 20.672 163.67 20.672C163.91 20.672 164.03 20.432 164.03 19.952C164.03 19.544 163.73 19.22 163.13 18.98C162.482 18.716 161.966 18.596 161.582 18.62C160.886 18.644 160.274 18.692 159.746 18.764C159.218 18.812 158.762 18.884 158.378 18.98C160.058 18.236 161.282 17.552 162.05 16.928C163.346 15.896 164.006 14.72 164.03 13.4C164.03 13.208 163.994 12.956 163.922 12.644C163.874 12.308 163.79 12.152 163.67 12.176C163.166 12.248 162.914 12.44 162.914 12.752C162.914 12.92 163.01 13.088 163.202 13.256C163.418 13.4 163.514 13.568 163.49 13.76C163.394 15.056 162.542 16.196 160.934 17.18C158.798 18.236 157.214 18.992 156.182 19.448C155.126 19.88 153.71 20.732 151.934 22.004C147.638 22.004 144.242 23.18 141.746 25.532C141.578 25.292 141.422 25.064 141.278 24.848C141.134 24.608 140.978 24.368 140.81 24.128C140.474 23.6 140.21 23.096 140.018 22.616C140.234 22.496 140.462 22.364 140.702 22.22C140.942 22.076 141.062 21.896 141.062 21.68C141.062 21.512 140.978 21.332 140.81 21.14C140.642 20.924 140.534 20.768 140.486 20.672C140.414 20.696 140.306 20.768 140.162 20.888C140.042 21.008 139.898 21.068 139.73 21.068H139.478C139.406 20.852 139.37 20.648 139.37 20.456C139.37 19.76 139.682 19.388 140.306 19.34C140.378 19.268 140.414 19.184 140.414 19.088C140.414 18.632 140.246 18.404 139.91 18.404C139.55 18.404 139.262 18.632 139.046 19.088C138.878 19.424 138.794 19.796 138.794 20.204C138.794 20.708 138.914 21.272 139.154 21.896L137.75 19.952C137.51 19.64 137.282 19.316 137.066 18.98C136.85 18.644 136.646 18.308 136.454 17.972C136.838 17.036 137.726 16.088 139.118 15.128C140.414 16.952 142.19 17.864 144.446 17.864H144.554C143.618 18.512 143.15 19.28 143.15 20.168C143.15 20.744 143.426 21.236 143.978 21.644C144.434 22.004 144.974 22.184 145.598 22.184C145.718 22.184 145.778 22.064 145.778 21.824C145.778 21.536 145.43 21.26 144.734 20.996C144.038 20.708 143.69 20.42 143.69 20.132C143.69 19.244 144.302 18.44 145.526 17.72C146.198 17.504 146.678 17.312 146.966 17.144C148.406 19.112 149.798 20.096 151.142 20.096C152.342 20.096 153.35 19.748 154.166 19.052C155.102 18.236 155.57 17.048 155.57 15.488C155.57 12.848 154.19 10.94 151.43 9.764V9.728C151.43 8.504 151.178 7.436 150.674 6.524C151.826 7.7 152.678 8.48 153.23 8.864C154.31 9.632 155.378 9.992 156.434 9.944C156.746 9.944 157.058 9.872 157.37 9.728C157.706 9.584 158.006 9.404 158.27 9.188C158.534 8.948 158.738 8.684 158.882 8.396C159.05 8.108 159.134 7.808 159.134 7.496C159.134 7.04 159.002 6.644 158.738 6.308C158.474 5.948 158.126 5.768 157.694 5.768C157.382 5.768 157.07 5.864 156.758 6.056C156.134 6.536 155.87 6.968 155.966 7.352C155.99 7.568 156.17 7.676 156.506 7.676C156.65 7.676 156.818 7.424 157.01 6.92C157.178 6.416 157.382 6.164 157.622 6.164C158.366 6.188 158.75 6.644 158.774 7.532C158.798 8.132 158.558 8.624 158.054 9.008C157.55 9.368 156.986 9.548 156.362 9.548C155.642 9.548 154.97 9.38 154.346 9.044C153.53 8.66 152.654 7.976 151.718 6.992C151.334 6.584 150.95 6.176 150.566 5.768C150.182 5.36 149.798 4.952 149.414 4.544C150.158 4.88 150.83 5.132 151.43 5.3C152.054 5.468 152.618 5.564 153.122 5.588C153.554 5.588 153.89 5.42 154.13 5.084C154.37 4.724 154.466 4.328 154.418 3.896C154.058 4.688 153.422 5.084 152.51 5.084C152.174 5.084 151.79 5.024 151.358 4.904C149.63 4.208 148.394 3.656 147.65 3.248C146.954 2.912 146.294 2.66 145.67 2.492C145.07 2.324 144.53 2.228 144.05 2.204C140.45 2.132 137.786 3.128 136.058 5.192C135.986 3.944 135.59 3.32 134.87 3.32C134.582 3.32 134.438 3.428 134.438 3.644C134.438 3.716 134.486 3.8 134.582 3.896C134.702 3.968 134.822 4.064 134.942 4.184C135.062 4.28 135.182 4.388 135.302 4.508C135.422 4.628 135.506 4.76 135.554 4.904C135.53 4.928 135.482 4.94 135.41 4.94C135.314 4.94 135.23 4.904 135.158 4.832C134.822 4.64 134.582 4.544 134.438 4.544C134.342 4.544 134.282 4.556 134.258 4.58C134.138 4.892 134.078 5.144 134.078 5.336C134.078 5.696 134.198 5.948 134.438 6.092C134.678 6.236 134.93 6.368 135.194 6.488C134.81 7.112 134.474 7.988 134.186 9.116C134.018 9.02 133.766 8.972 133.43 8.972C131.294 8.972 129.53 9.98 128.138 11.996C126.938 13.748 126.338 15.68 126.338 17.792C126.338 21.92 128.114 25.544 131.666 28.664L134.51 31.22C134.03 30.98 132.698 30.296 130.514 29.168C129.674 28.76 128.93 28.364 128.282 27.98C127.658 27.596 127.118 27.224 126.662 26.864C127.022 26.504 127.37 26.324 127.706 26.324C128.09 26.324 128.522 26.636 129.002 27.26L129.542 26.9C129.542 26.9 129.254 26.708 128.678 26.324C128.366 26.084 128.054 25.964 127.742 25.964C127.19 25.964 126.698 26.144 126.266 26.504C125.09 25.472 124.502 24.236 124.502 22.796C124.502 21.812 124.802 20.984 125.402 20.312L125.042 19.916C124.274 20.876 123.89 21.824 123.89 22.76C123.89 24.296 124.574 25.652 125.942 26.828C125.342 27.5 125.042 28.352 125.042 29.384C125.042 29.84 124.838 30.092 124.43 30.14C124.262 30.164 124.022 30.164 123.71 30.14C123.518 30.116 123.362 30.104 123.242 30.104C123.122 30.08 123.038 30.068 122.99 30.068V29.924C122.99 29.396 122.882 28.916 122.666 28.484C122.45 28.028 122.162 27.644 121.802 27.332C121.418 27.02 120.986 26.78 120.506 26.612C120.026 26.42 119.522 26.324 118.994 26.324C118.442 26.324 117.926 26.432 117.446 26.648C116.966 26.84 116.558 27.116 116.222 27.476C115.862 27.836 115.586 28.256 115.394 28.736C115.178 29.216 115.07 29.732 115.07 30.284V30.356C113.558 30.14 112.238 29.612 111.11 28.772C109.862 27.836 109.238 26.816 109.238 25.712C109.238 24.848 109.442 24.032 109.85 23.264C110.33 22.424 110.93 22.004 111.65 22.004C111.962 22.004 112.406 22.22 112.982 22.652C113.558 23.084 114.062 23.3 114.494 23.3C114.95 23.3 115.37 23.084 115.754 22.652C116.114 22.196 116.33 21.728 116.402 21.248L115.826 20.852C115.898 21.356 115.79 21.8 115.502 22.184C115.214 22.568 114.818 22.76 114.314 22.76C113.954 22.76 113.582 22.544 113.198 22.112C112.814 21.656 112.262 21.428 111.542 21.428C110.75 21.428 110.09 21.764 109.562 22.436C109.01 23.108 108.71 23.84 108.662 24.632C108.614 26.264 109.118 27.656 110.174 28.808C111.35 30.056 113.006 30.788 115.142 31.004C115.358 32.3 116.102 33.368 117.374 34.208C118.55 34.976 119.798 35.36 121.118 35.36C122.222 35.36 123.806 35.168 125.87 34.784C127.958 34.376 129.566 34.196 130.694 34.244C132.734 34.292 134.606 35.084 136.31 36.62C137.846 38.06 138.674 39.572 138.794 41.156L139.37 40.904ZM129.29 33.668C128.93 33.692 128.366 33.752 127.598 33.848C126.83 33.944 125.858 34.076 124.682 34.244C123.722 34.364 122.87 34.46 122.126 34.532C121.358 34.604 120.674 34.64 120.074 34.64C119.09 34.64 118.166 34.28 117.302 33.56C116.414 32.816 115.886 31.976 115.718 31.04C116.15 31.064 116.594 31.064 117.05 31.04C117.218 31.616 117.554 32.108 118.058 32.516C118.562 32.924 119.102 33.128 119.678 33.128C121.502 33.128 122.582 32.3 122.918 30.644C123.11 30.644 123.314 30.644 123.53 30.644C123.746 30.644 123.95 30.632 124.142 30.608C124.334 30.608 124.526 30.608 124.718 30.608C124.934 30.608 125.138 30.62 125.33 30.644C125.93 31.964 127.25 32.972 129.29 33.668ZM118.958 26.72C119.87 26.72 120.674 27.032 121.37 27.656C122.066 28.28 122.414 29.036 122.414 29.924V30.068C120.878 30.068 119.198 30.14 117.374 30.284C117.422 29.828 117.602 29.408 117.914 29.024C118.226 28.616 118.598 28.412 119.03 28.412C119.102 28.412 119.246 28.472 119.462 28.592C119.654 28.712 119.762 28.772 119.786 28.772L120.182 28.592C119.774 28.352 119.39 28.232 119.03 28.232C118.478 28.232 118.01 28.448 117.626 28.88C117.242 29.288 117.026 29.768 116.978 30.32C116.426 30.392 115.982 30.416 115.646 30.392C115.646 29.912 115.73 29.456 115.898 29.024C116.066 28.568 116.294 28.172 116.582 27.836C116.87 27.5 117.218 27.236 117.626 27.044C118.034 26.828 118.478 26.72 118.958 26.72ZM119.714 32.732C119.21 32.732 118.742 32.564 118.31 32.228C117.878 31.892 117.59 31.484 117.446 31.004C118.118 30.908 118.862 30.836 119.678 30.788C120.47 30.74 121.346 30.692 122.306 30.644C121.946 32.036 121.082 32.732 119.714 32.732ZM138.614 37.844C137.822 35.66 136.526 33.968 134.726 32.768C132.59 31.352 129.578 30.488 125.69 30.176C125.618 29.96 125.582 29.732 125.582 29.492C125.582 28.628 125.846 27.86 126.374 27.188C127.094 27.764 127.958 28.316 128.966 28.844L131.846 30.428C134.318 31.772 136.058 32.936 137.066 33.92C138.65 35.912 139.418 38.072 139.37 40.4C137.69 36.368 135.122 34.124 131.666 33.668C130.922 33.476 130.262 33.296 129.686 33.128C129.11 32.936 128.618 32.744 128.21 32.552C127.034 32 126.254 31.376 125.87 30.68C127.67 30.824 129.278 31.1 130.694 31.508C132.47 32.084 133.994 32.876 135.266 33.884C135.866 34.364 136.442 34.94 136.994 35.612C137.546 36.26 138.086 37.004 138.614 37.844ZM133.898 11.996C133.922 12.932 134.018 13.844 134.186 14.732C134.378 15.596 134.666 16.436 135.05 17.252C133.658 18.788 132.962 20.432 132.962 22.184C132.962 24.176 133.478 26.084 134.51 27.908C135.134 29.036 136.322 30.644 138.074 32.732C138.002 33.212 137.954 33.476 137.93 33.524C137.162 32.732 136.466 32.048 135.842 31.472C135.242 30.896 134.726 30.428 134.294 30.068C133.286 28.772 132.494 27.752 131.918 27.008C131.366 26.264 131.03 25.784 130.91 25.568C129.83 23.888 129.314 22.28 129.362 20.744C129.41 19.928 129.914 18.932 130.874 17.756C131.834 16.58 132.338 15.8 132.386 15.416C132.386 15.272 132.35 15.116 132.278 14.948C132.206 14.78 132.122 14.612 132.026 14.444C131.93 14.276 131.834 14.12 131.738 13.976C131.666 13.808 131.63 13.652 131.63 13.508C131.63 13.052 131.822 12.74 132.206 12.572L131.99 12.392C131.366 12.656 131.054 13.028 131.054 13.508C131.054 13.748 131.186 14.06 131.45 14.444C131.738 14.804 131.858 15.116 131.81 15.38C131.546 15.764 131.282 16.136 131.018 16.496C130.778 16.832 130.538 17.156 130.298 17.468C129.29 18.812 128.786 19.88 128.786 20.672C128.786 21.992 129.158 23.348 129.902 24.74C130.142 25.196 130.466 25.712 130.874 26.288C131.282 26.864 131.762 27.524 132.314 28.268C128.834 25.028 127.094 21.476 127.094 17.612C127.094 15.764 127.658 14.024 128.786 12.392C130.01 10.616 131.522 9.728 133.322 9.728C133.562 9.728 133.814 9.764 134.078 9.836C134.03 10.316 133.982 10.736 133.934 11.096C133.91 11.456 133.898 11.756 133.898 11.996ZM139.766 27.98C138.494 26.468 137.63 25.316 137.174 24.524C136.358 23.18 135.95 21.836 135.95 20.492C135.95 19.916 135.998 19.472 136.094 19.16C136.358 19.592 136.706 20.096 137.138 20.672C137.57 21.248 138.062 21.908 138.614 22.652C139.838 24.164 140.702 25.304 141.206 26.072C140.918 26.384 140.654 26.696 140.414 27.008C140.174 27.32 139.958 27.644 139.766 27.98ZM142.574 10.484C142.574 9.86 142.502 9.404 142.358 9.116C142.334 9.092 142.274 9.008 142.178 8.864C142.082 8.72 141.938 8.516 141.746 8.252C141.482 7.916 141.35 7.616 141.35 7.352C141.35 7.184 141.362 7.04 141.386 6.92C141.986 6.656 142.502 6.524 142.934 6.524C143.678 6.524 144.314 6.716 144.842 7.1C144.794 8.588 145.346 9.908 146.498 11.06C146.234 12.476 145.334 13.172 143.798 13.148C143.318 13.076 142.97 13.004 142.754 12.932C142.706 12.98 142.682 13.028 142.682 13.076C142.682 13.196 142.838 13.328 143.15 13.472C143.486 13.616 143.81 13.688 144.122 13.688C145.538 13.64 146.534 12.956 147.11 11.636C147.734 12.164 148.586 12.656 149.666 13.112C149.186 13.952 148.67 14.648 148.118 15.2C147.686 15.08 147.338 15.02 147.074 15.02C146.474 15.02 145.946 15.212 145.49 15.596C145.058 15.98 144.83 16.472 144.806 17.072C144.734 17.072 144.674 17.084 144.626 17.108H144.41C142.514 17.108 140.906 16.34 139.586 14.804C140.618 14.132 141.338 13.556 141.746 13.076C142.298 12.38 142.574 11.516 142.574 10.484ZM145.022 5.984C144.83 6.368 144.554 6.5 144.194 6.38C143.474 6.236 142.994 6.164 142.754 6.164C142.226 6.164 141.794 6.248 141.458 6.416C141.41 6.128 141.314 5.984 141.17 5.984C140.978 5.984 140.798 6.056 140.63 6.2C140.15 6.608 139.91 7.016 139.91 7.424C138.542 8.624 137.858 9.98 137.858 11.492C137.858 12.284 138.098 13.196 138.578 14.228C138.122 14.54 137.654 14.888 137.174 15.272C136.694 15.632 136.214 16.04 135.734 16.496C135.014 14.96 134.654 13.34 134.654 11.636C134.654 11.156 134.69 10.664 134.762 10.16C135.338 10.568 135.806 11.18 136.166 11.996L136.526 11.744C136.262 10.76 135.71 10.004 134.87 9.476C135.302 7.556 136.142 6.008 137.39 4.832C138.83 3.416 140.678 2.66 142.934 2.564C144.83 2.468 146.51 2.984 147.974 4.112C149.606 5.408 150.494 7.184 150.638 9.44C150.566 9.416 149.918 9.236 148.694 8.9C147.926 8.684 147.29 8.444 146.786 8.18C146.762 8.156 146.678 8.072 146.534 7.928C146.39 7.784 146.186 7.556 145.922 7.244C145.586 6.932 145.406 6.572 145.382 6.164L145.022 5.984ZM141.242 11.636C141.242 12.14 140.486 12.908 138.974 13.94C138.47 13.076 138.218 12.296 138.218 11.6C138.218 10.256 138.806 9.032 139.982 7.928C140.054 8.312 140.294 8.936 140.702 9.8C141.062 10.496 141.242 11.108 141.242 11.636ZM147.182 56.168C148.43 54.704 149.33 53.552 149.882 52.712C150.89 51.44 151.946 50.804 153.05 50.804C153.77 50.804 154.382 51.14 154.886 51.812C154.694 52.004 154.478 52.196 154.238 52.388C154.022 52.604 153.782 52.832 153.518 53.072C151.382 54.992 149.15 56.3 146.822 56.996L146.066 57.212C146.306 57.044 146.51 56.876 146.678 56.708C146.87 56.54 147.038 56.36 147.182 56.168ZM155.174 52.244C154.814 52.556 154.502 52.832 154.238 53.072C153.974 53.312 153.758 53.516 153.59 53.684C152.702 54.428 152.066 54.8 151.682 54.8C151.898 54.8 152.534 54.368 153.59 53.504C154.622 52.64 155.15 52.22 155.174 52.244ZM137.894 45.224C137.726 45.008 137.606 44.876 137.534 44.828C137.798 44.732 138.038 44.648 138.254 44.576C138.47 44.528 138.638 44.492 138.758 44.468C138.278 44.876 137.99 45.128 137.894 45.224ZM126.734 39.464C126.734 41.576 127.766 43.208 129.83 44.36C130.718 44.768 131.474 45.116 132.098 45.404C132.722 45.692 133.238 45.896 133.646 46.016C132.782 46.304 131.99 46.448 131.27 46.448C129.47 46.448 127.946 46.04 126.698 45.224C125.138 44.216 124.334 42.74 124.286 40.796C124.262 39.62 124.634 38.528 125.402 37.52C126.242 36.464 127.37 35.936 128.786 35.936H128.93C128.33 36.272 127.814 36.776 127.382 37.448C126.95 38.12 126.734 38.792 126.734 39.464ZM150.134 46.412C150.206 46.412 150.254 46.424 150.278 46.448H150.314V46.412C150.362 46.412 150.398 46.424 150.422 46.448H150.566C153.206 46.448 155.246 45.404 156.686 43.316C157.814 41.612 158.378 39.548 158.378 37.124C158.378 34.556 157.286 32.216 155.102 30.104C153.062 28.136 150.782 27.08 148.262 26.936C148.526 26.552 148.814 26.156 149.126 25.748C149.462 25.34 149.822 24.932 150.206 24.524C153.086 24.788 155.438 26.18 157.262 28.7C159.134 31.268 160.07 34.364 160.07 37.988C160.07 40.628 159.314 42.932 157.802 44.9C156.026 47.204 153.698 48.356 150.818 48.356C149.402 48.356 148.106 47.996 146.93 47.276C145.682 46.556 144.77 45.572 144.194 44.324C144.626 44.444 145.598 44.84 147.11 45.512C148.262 46.04 149.27 46.34 150.134 46.412ZM141.062 29.6C140.702 29.12 140.45 28.808 140.306 28.664C140.69 28.016 141.17 27.416 141.746 26.864C141.89 27.104 142.034 27.344 142.178 27.584C142.322 27.8 142.454 28.04 142.574 28.304C141.998 28.664 141.494 29.096 141.062 29.6ZM149.306 24.452C149.09 24.716 148.838 25.052 148.55 25.46C148.262 25.868 147.95 26.348 147.614 26.9C145.958 26.948 144.446 27.32 143.078 28.016C142.958 27.752 142.826 27.488 142.682 27.224C142.538 26.96 142.394 26.696 142.25 26.432C143.906 25.136 146.258 24.476 149.306 24.452ZM150.782 13.508C151.646 13.748 152.462 14.216 153.23 14.912C154.022 15.68 154.418 16.448 154.418 17.216C154.418 17.768 154.214 18.236 153.806 18.62C153.422 18.98 152.954 19.16 152.402 19.16C152.186 19.16 151.994 19.136 151.826 19.088C151.682 19.016 151.526 18.908 151.358 18.764C151.214 18.62 151.046 18.416 150.854 18.152C150.686 17.888 150.47 17.54 150.206 17.108C149.75 16.412 149.318 15.896 148.91 15.56C149.126 15.272 149.306 15.02 149.45 14.804C149.618 14.588 149.75 14.396 149.846 14.228C150.278 13.676 150.59 13.436 150.782 13.508ZM146.138 16.352C146.258 16.352 146.366 16.4 146.462 16.496C146.078 16.736 145.694 16.892 145.31 16.964C145.31 16.556 145.586 16.352 146.138 16.352ZM137.282 48.68C137.282 49.16 136.886 49.484 136.094 49.652C136.118 49.604 136.142 49.52 136.166 49.4C136.214 49.304 136.274 49.172 136.346 49.004C136.658 48.26 136.922 47.9 137.138 47.924C137.234 47.924 137.282 48.176 137.282 48.68ZM147.254 27.548V27.512H147.29L147.254 27.548ZM174.909 24.128C174.573 24.68 174.345 25.268 174.225 25.892C172.833 26.924 171.609 28.352 170.553 30.176C169.425 32.168 168.861 34.004 168.861 35.684C168.861 37.892 169.557 39.8 170.949 41.408C172.245 42.896 173.805 43.76 175.629 44C175.845 43.616 176.061 43.16 176.277 42.632C176.493 42.08 176.877 41.468 177.429 40.796C177.669 40.532 177.897 40.256 178.113 39.968C178.353 39.68 178.593 39.404 178.833 39.14C180.729 36.884 181.677 34.472 181.677 31.904C181.677 30.152 180.933 28.388 179.445 26.612C177.957 24.86 176.445 24.032 174.909 24.128ZM179.229 35.396C179.229 36.164 179.157 36.8 179.013 37.304C178.797 37.976 178.473 38.588 178.041 39.14C177.633 39.692 177.225 40.232 176.817 40.76C175.065 40.232 173.709 39.272 172.749 37.88C171.789 36.488 171.309 34.856 171.309 32.984C171.309 31.736 171.549 30.56 172.029 29.456C172.557 28.232 173.289 27.536 174.225 27.368C175.809 27.92 177.057 28.988 177.969 30.572C178.809 32.06 179.229 33.668 179.229 35.396ZM175.521 31.292C175.617 31.196 175.665 31.088 175.665 30.968C175.665 30.776 175.545 30.632 175.305 30.536C174.417 30.656 173.745 31.124 173.289 31.94C172.857 32.66 172.641 33.488 172.641 34.424C172.641 35.624 172.893 36.656 173.397 37.52C173.565 37.832 173.817 38.192 174.153 38.6C174.489 38.984 174.921 39.44 175.449 39.968C175.569 40.064 175.689 40.112 175.809 40.112C175.929 40.112 176.001 40.064 176.025 39.968C175.497 39.488 175.041 39.056 174.657 38.672C174.297 38.288 174.021 37.928 173.829 37.592C173.277 36.68 173.001 35.66 173.001 34.532C173.001 33.74 173.229 33.044 173.685 32.444C174.165 31.82 174.777 31.436 175.521 31.292ZM190.567 41.48C191.647 42.104 192.463 42.62 193.015 43.028C194.023 43.676 194.887 44 195.607 44C197.215 44 198.523 43.424 199.531 42.272C200.563 41.096 201.079 39.68 201.079 38.024C201.079 36.968 200.539 35.552 199.459 33.776C198.403 31.952 197.875 30.572 197.875 29.636C197.875 29.516 197.935 29.252 198.055 28.844C198.319 27.86 198.451 27.284 198.451 27.116C198.427 26.996 198.295 27.032 198.055 27.224C196.303 28.808 195.427 30.812 195.427 33.236C195.427 34.124 195.931 35.288 196.939 36.728C197.947 38.168 198.451 39.332 198.451 40.22C198.451 40.628 198.367 41.024 198.199 41.408C198.031 41.792 197.803 42.14 197.515 42.452C197.251 42.74 196.939 42.98 196.579 43.172C196.219 43.34 195.835 43.424 195.427 43.424C194.971 43.424 194.515 43.292 194.059 43.028C193.843 42.908 193.591 42.728 193.303 42.488C193.015 42.224 192.679 41.912 192.295 41.552C191.575 40.808 190.999 40.304 190.567 40.04V28.88C191.383 27.152 192.283 26.288 193.267 26.288C193.627 26.288 194.203 26.42 194.995 26.684C195.715 26.924 196.303 27.044 196.759 27.044C197.431 27.044 198.295 26.576 199.351 25.64C199.951 25.112 200.251 24.692 200.251 24.38C200.251 24.188 200.083 24.068 199.747 24.02C199.171 24.524 198.703 24.776 198.343 24.776C197.887 24.8 197.179 24.68 196.219 24.416C195.283 24.128 194.587 23.996 194.131 24.02C193.363 24.068 192.655 24.428 192.007 25.1C191.863 25.268 191.671 25.52 191.431 25.856C191.191 26.192 190.903 26.624 190.567 27.152V24.524C190.567 24.068 190.207 23.852 189.487 23.876C188.287 25.628 187.255 26.744 186.391 27.224C186.271 27.44 186.223 27.62 186.247 27.764C186.247 27.956 186.319 28.052 186.463 28.052C186.583 28.052 186.715 28.016 186.859 27.944C187.003 27.872 187.111 27.836 187.183 27.836C187.255 27.836 187.315 27.848 187.363 27.872V40.22C187.291 40.268 187.147 40.412 186.931 40.652C186.403 41.276 186.127 41.78 186.103 42.164C186.055 42.38 186.211 42.488 186.571 42.488C186.739 42.032 187.003 41.684 187.363 41.444V53.072C187.363 53.552 187.723 53.768 188.443 53.72C189.691 51.968 190.723 50.852 191.539 50.372C191.635 50.228 191.695 50.06 191.719 49.868C191.719 49.652 191.635 49.544 191.467 49.544L191.143 49.616C191.239 47.6 191.743 46.352 192.655 45.872C192.823 45.776 193.099 45.716 193.483 45.692C193.819 45.644 193.999 45.596 194.023 45.548C194.071 45.356 194.047 45.152 193.951 44.936C193.879 44.744 193.747 44.672 193.555 44.72C192.955 44.72 192.463 44.912 192.079 45.296C191.239 46.04 190.831 47.492 190.855 49.652L190.567 49.724V41.48ZM194.383 31.364C194.455 31.292 194.491 31.22 194.491 31.148C194.491 30.956 194.299 30.776 193.915 30.608C192.067 31.112 191.143 33.944 191.143 39.104H191.467C191.467 34.376 192.439 31.796 194.383 31.364ZM211.679 24.02C211.007 24.692 210.599 25.508 210.455 26.468C209.831 26.996 209.231 27.584 208.655 28.232C208.079 28.88 207.551 29.6 207.071 30.392C206.015 32.096 205.475 33.68 205.451 35.144C205.403 37.784 206.375 39.968 208.367 41.696C210.119 43.232 212.039 44 214.127 44C214.367 42.056 214.859 40.928 215.603 40.616C215.555 40.256 215.459 40.052 215.315 40.004C215.147 39.956 214.991 39.98 214.847 40.076C214.223 40.436 213.899 40.616 213.875 40.616C212.459 40.616 211.103 39.812 209.807 38.204C208.535 36.668 207.899 35.144 207.899 33.632C207.899 30.704 208.739 28.556 210.419 27.188V27.404C210.491 27.452 210.587 27.524 210.707 27.62C210.851 27.716 211.019 27.824 211.211 27.944C213.035 29.12 213.947 30.596 213.947 32.372C213.947 33.644 213.035 34.832 211.211 35.936L211.499 36.476C212.915 35.66 213.935 34.868 214.559 34.1C215.543 32.9 216.035 31.448 216.035 29.744C216.035 28.544 215.579 27.308 214.667 26.036C213.779 24.788 212.783 24.116 211.679 24.02ZM212.003 30.644C211.043 30.596 210.323 31.052 209.843 32.012C209.435 32.78 209.231 33.68 209.231 34.712C209.231 35.792 209.495 36.74 210.023 37.556C210.407 38.204 211.079 38.936 212.039 39.752C212.231 39.752 212.315 39.644 212.291 39.428C211.595 38.972 211.007 38.336 210.527 37.52C210.047 36.704 209.807 35.9 209.807 35.108C209.807 34.94 209.807 34.76 209.807 34.568C209.831 34.376 209.855 34.184 209.879 33.992C210.071 32.48 210.659 31.664 211.643 31.544C211.931 31.328 212.075 31.112 212.075 30.896C212.075 30.824 212.051 30.74 212.003 30.644Z" fill="#59544C"/>
</g>
<defs>
<clipPath id="clip0">
<rect width="217" height="59" fill="white"/>
</clipPath>
</defs>
</svg>
