<svg width="32" height="32" viewBox="0 0 32 32" fill="none"
    xmlns="http://www.w3.org/2000/svg">
    <path d="M12 15.72C12 15.84 12.828 17.496 14.484 20.688C16.164 23.904 17.064 25.488 17.184 25.44C17.904 24.912 18.528 24.456 19.056 24.072C19.584 23.688 20.016 23.364 20.352 23.1C16.608 18.78 14.736 15.504 14.736 13.272C14.736 13.32 15.444 12.672 16.86 11.328C17.652 10.608 18.324 9.96 18.876 9.384C19.452 8.808 19.908 8.304 20.244 7.872C21.204 6.624 21.24 6 20.352 6C18.264 6 16.344 7.092 14.592 9.276C12.864 11.364 12 13.512 12 15.72Z" fill="currentColor"/>
</svg>
