<svg width="121" height="137" viewBox="0 0 121 137" fill="none" xmlns="http://www.w3.org/2000/svg">
<rect x="10" width="100" height="137" fill="#F3B335"/>
<path d="M0 12L2.5 62L5 65L10 62V91.3552L9.99987 101.355L47.5001 137H60.0001H72.5L110 101.355V90.6448V62L115.5 65L118.25 62L121 12L110 37L105.875 12H15.125L10 37L0 12Z" fill="#FCE8D5"/>
<path d="M31 100H91L87 105H35L31 100Z" fill="#FECABA"/>
<path d="M23 32H98L95 37H26L23 32Z" fill="#F3B335"/>
<path d="M33.0002 37H56L53.0002 47H43.0002L33.0002 37Z" fill="#8DCAC6"/>
<path d="M65 37H88.0002L78.0002 47H68.0002L65 37Z" fill="#8DCAC6"/>
</svg>
