<svg width="32" height="32" viewBox="0 0 32 32" fill="none"
    xmlns="http://www.w3.org/2000/svg">
    <path d="M20.9921 15.7211C20.9921 15.6011 20.1521 13.9451 18.4721 10.7531C16.8161 7.53706 15.9281 5.95306 15.8081 6.00106C15.1121 6.52906 14.4881 6.98506 13.9361 7.36906C13.4081 7.75306 12.9761 8.07706 12.6401 8.34106L15.4481 13.2011C17.3441 16.4651 18.2921 18.1211 18.2921 18.1691C18.2921 18.1451 17.5721 18.7931 16.1321 20.1131C14.5961 21.5051 13.4681 22.6571 12.7481 23.5691C11.7881 24.8171 11.7521 25.4411 12.6401 25.4411C14.7281 25.4411 16.6481 24.3491 18.4001 22.1651C20.1281 20.0771 20.9921 17.9291 20.9921 15.7211Z" fill="currentColor"/>
</svg>
